<?xml version="1.0" encoding="utf-8"?>
<!-- Generator: Adobe Illustrator 23.0.4, SVG Export Plug-In . SVG Version: 6.00 Build 0)  -->
<svg version="1.1" id="圖層_1" xmlns="http://www.w3.org/2000/svg" xmlns:xlink="http://www.w3.org/1999/xlink" x="0px" y="0px"
	 viewBox="0 0 400 400" style="enable-background:new 0 0 400 400;" xml:space="preserve">
<style type="text/css">
	.st0{fill:#FFFFFF;}
</style>
<title>logoicon</title>
<g id="圖層_4">
	<path class="st0" d="M112.2,167.3c-11-1.1-20.8,6.8-22,17.8c-1.1,11,6.8,20.8,17.8,22c11,1.1,20.8-6.8,22-17.8
		c0.1-1.4,0.1-2.7,0-4.1C129,175.7,121.6,168.3,112.2,167.3z M400,187.2c0-64.4-30.9-124.8-83.2-162.3c-4.2-3-8.4-5.8-12.8-8.5
		c-11.3-6.9-26.1-3.4-33,7.9c-0.1,0.2-0.2,0.4-0.3,0.6l-8.6,14.9l0,0l-56.9,98.5c-1.7,2.9-5.3,3.9-8.2,2.2c-0.9-0.5-1.7-1.3-2.2-2.2
		l-56.9-98.5l0,0l-8.6-14.9C122.7,13.3,108,9.4,96.6,16c-0.2,0.1-0.4,0.2-0.6,0.3c-4.4,2.7-8.7,5.5-12.8,8.5
		C31.1,62.3,0.2,122.4,0,186.6c-0.3,110.5,89.5,200.6,200,200.6c45.6,0.1,89.9-15.5,125.4-44.2l10.2,34.5c0.9,3.2,4.3,5,7.5,4.1
		c1-0.3,1.8-0.8,2.5-1.5l46.8-46.8c2.3-2.3,2.4-6.1,0-8.5c-0.7-0.7-1.6-1.2-2.5-1.5l-34.4-10.4C384.4,277.4,400.1,233,400,187.2z
		 M40,187.2c0-44.9,18.8-87.7,52-118c4.9-4.4,12.5-4.1,16.9,0.9c0.6,0.6,1.1,1.3,1.5,2.1l64.7,112.1c1.1,1.9,1.1,4.1,0,6
		l-64.7,112.1c-3.3,5.7-10.6,7.7-16.4,4.4c-0.7-0.4-1.4-0.9-2.1-1.5C58.8,275,40,232.1,40,187.2z M181,346.1
		c-9.9-1.2-19.6-3.3-29.1-6.2c-6.3-2-9.9-8.7-7.9-15c0.3-0.9,0.6-1.7,1.1-2.4L289.6,72.1c3.3-5.7,10.6-7.7,16.4-4.4
		c0.8,0.4,1.5,1,2.2,1.6c7.3,6.7,14,14.1,19.9,22c1.5,1.9,1.6,4.5,0.4,6.6L186.9,343.1C185.7,345.2,183.4,346.3,181,346.1z
		 M313.4,300.1l-0.6-0.2l0.2,0.6c-18.5,18.4-41.2,32.1-66.2,39.7c-3.2,1-6.5-0.7-7.5-3.9c-0.5-1.6-0.3-3.4,0.5-4.8l105.1-182
		c1.6-2.9,5.3-3.9,8.2-2.2c1.4,0.8,2.5,2.2,2.9,3.9C368.3,204.8,352.2,261.1,313.4,300.1L313.4,300.1z"/>
</g>
</svg>
