<svg id="圖層_1" data-name="圖層 1" xmlns="http://www.w3.org/2000/svg" viewBox="0 0 400 400"><title>name_logo</title><path d="M400,182.38A200.37,200.37,0,0,0,282.2,0L262.09,34.83,200,142.38,137.91,34.83,117.8,0A200.37,200.37,0,0,0,0,182.38c0,110.46,89.54,200,200,200a199.1,199.1,0,0,0,120.88-40.67L336.11,400,400,336.11l-56.25-14.69A199.32,199.32,0,0,0,400,182.38ZM86.86,295.52a160,160,0,0,1,0-226.28A162.24,162.24,0,0,1,103.3,54.89l73.61,127.49L103.3,309.87A163.5,163.5,0,0,1,86.86,295.52Zm98.51,46.19a158.9,158.9,0,0,1-47.46-11.79l158.79-275a161.81,161.81,0,0,1,34,35.12Zm127.77-46.19a159,159,0,0,1-80,43.43l119-206.19a160.43,160.43,0,0,1-39.05,162.76ZM95.31,158.38a24,24,0,1,0,24,24A24,24,0,0,0,95.31,158.38Z"/></svg>