<svg xmlns="http://www.w3.org/2000/svg" viewBox="0 0 400 400"><title>logoicon</title><g id="圖層_4" data-name="圖層 4"><path d="M112.17,167.3A20,20,0,1,0,130,185.15,20,20,0,0,0,112.17,167.3ZM400,187.2A199.71,199.71,0,0,0,316.82,24.86q-6.24-4.5-12.82-8.52a24,24,0,0,0-33.34,8.46l-8.59,14.88h0L205.2,138.2a6,6,0,0,1-10.4,0L137.93,39.68h0L129.34,24.8A24,24,0,0,0,96,16.34q-6.59,4-12.82,8.52A199.71,199.71,0,0,0,0,186.57C-.34,297.1,89.48,387.2,200,387.2A199.26,199.26,0,0,0,325.43,343l10.21,34.55a6,6,0,0,0,10,2.54l46.77-46.78a6,6,0,0,0-2.5-10l-34.37-10.39A199.13,199.13,0,0,0,400,187.2Zm-360,0a159.62,159.62,0,0,1,52-118,12,12,0,0,1,18.44,2.92L175.17,184.2a6,6,0,0,1,0,6L110.44,302.33A12,12,0,0,1,92,305.24,159.6,159.6,0,0,1,40,187.2ZM181,346.06a159.27,159.27,0,0,1-29.08-6.23,12,12,0,0,1-6.82-17.47L289.56,72.07a12,12,0,0,1,18.55-2.81,161.83,161.83,0,0,1,19.93,22,6,6,0,0,1,.42,6.64L186.89,343.1A6,6,0,0,1,181,346.06Zm132.35-45.91-.59-.18.18.6a160,160,0,0,1-66.16,39.69,6,6,0,0,1-7-8.74l105.09-182a6,6,0,0,1,11.05,1.63,160.23,160.23,0,0,1-42.6,149Z"/></g></svg>